<svg width="48" height="48" viewBox="0 0 48 48" fill="none" xmlns="http://www.w3.org/2000/svg">
<path d="M36 4.02L12 4C9.78 4 8 5.78 8 8V40C8 42.22 9.78 44 12 44H36C38.22 44 40 42.22 40 40V8C40 5.78 38.22 4.02 36 4.02ZM36 40H12L11.98 8H36V40Z" fill="#FFFBFB" fill-opacity="0.65"/>
<path d="M16 14C17.1046 14 18 13.1046 18 12C18 10.8954 17.1046 10 16 10C14.8954 10 14 10.8954 14 12C14 13.1046 14.8954 14 16 14Z" fill="#FFFBFB" fill-opacity="0.65"/>
<path d="M22 14C23.1046 14 24 13.1046 24 12C24 10.8954 23.1046 10 22 10C20.8954 10 20 10.8954 20 12C20 13.1046 20.8954 14 22 14Z" fill="#FFFBFB" fill-opacity="0.65"/>
<path d="M24 38C29.52 38 34 33.52 34 28C34 22.48 29.52 18 24 18C18.48 18 14 22.48 14 28C14 33.52 18.48 38 24 38ZM28.72 23.28C31.32 25.88 31.32 30.12 28.72 32.72C26.12 35.32 21.88 35.32 19.28 32.72L28.72 23.28Z" fill="#FFFBFB" fill-opacity="0.65"/>
</svg>
