<svg width="16" height="16" viewBox="0 0 16 16" fill="none" xmlns="http://www.w3.org/2000/svg">
<path d="M10.8 2.3999C11.3078 2.39982 11.7965 2.59289 12.1672 2.93993C12.5379 3.28698 12.7627 3.76202 12.796 4.2687L12.8 4.3999V6.4399C13.2286 6.52757 13.6168 6.75334 13.9049 7.08264C14.193 7.41193 14.3652 7.82659 14.3952 8.2631L14.4 8.3999V13.1999C14.4002 13.2999 14.3629 13.3963 14.2956 13.4701C14.2282 13.544 14.1357 13.59 14.0361 13.599C13.9366 13.608 13.8372 13.5795 13.7577 13.5189C13.6782 13.4584 13.6242 13.3703 13.6064 13.2719L13.6 13.1999V11.1999H2.39998V13.1999C2.40016 13.2999 2.36291 13.3963 2.29557 13.4701C2.22823 13.544 2.13567 13.59 2.03612 13.599C1.93657 13.608 1.83725 13.5795 1.75771 13.5189C1.67817 13.4584 1.62418 13.3703 1.60638 13.2719L1.59998 13.1999V8.3999C1.59988 7.93884 1.75909 7.49191 2.05065 7.13474C2.34222 6.77758 2.74823 6.53211 3.19998 6.4399V4.3999C3.1999 3.89213 3.39296 3.40333 3.74001 3.03267C4.08705 2.662 4.56209 2.43721 5.06878 2.4039L5.19998 2.3999H10.8ZM12.4 7.1999H3.59998C3.30179 7.1999 3.01429 7.31091 2.79349 7.5113C2.57269 7.7117 2.4344 7.98712 2.40558 8.2839L2.39998 8.3999V10.3999H13.6V8.3999C13.6 8.10172 13.489 7.81422 13.2886 7.59342C13.0882 7.37261 12.8128 7.23433 12.516 7.2055L12.4 7.1999ZM10.8 3.1999H5.19998C4.90167 3.19992 4.61406 3.31104 4.39324 3.5116C4.17242 3.71216 4.03421 3.98777 4.00558 4.2847L3.99998 4.3999V6.3999H4.79998V5.9999C4.79998 5.89382 4.84212 5.79207 4.91713 5.71706C4.99215 5.64205 5.09389 5.5999 5.19998 5.5999H7.19998C7.30606 5.5999 7.4078 5.64205 7.48282 5.71706C7.55783 5.79207 7.59998 5.89382 7.59998 5.9999V6.3999H8.39998V5.9999C8.39998 5.89382 8.44212 5.79207 8.51713 5.71706C8.59215 5.64205 8.69389 5.5999 8.79998 5.5999H10.8C10.9061 5.5999 11.0078 5.64205 11.0828 5.71706C11.1578 5.79207 11.2 5.89382 11.2 5.9999V6.3999H12V4.3999C12 4.10172 11.889 3.81422 11.6886 3.59342C11.4882 3.37261 11.2128 3.23433 10.916 3.2055L10.8 3.1999Z" fill="#FFFBFB" fill-opacity="0.65"/>
</svg>
