<svg width="49" height="48" viewBox="0 0 49 48" fill="none" xmlns="http://www.w3.org/2000/svg">
<path d="M18.5 28H16.5M32.5 28H30.5" stroke="#FFFBFB" stroke-opacity="0.65" stroke-width="1.5" stroke-linecap="round" stroke-linejoin="round"/>
<path d="M24.5 4H41.3C41.6183 4 41.9235 4.12643 42.1485 4.35147C42.3736 4.57652 42.5 4.88174 42.5 5.2V42.8C42.5 43.1183 42.3736 43.4235 42.1485 43.6485C41.9235 43.8736 41.6183 44 41.3 44H24.5M24.5 4H7.7C7.38174 4 7.07652 4.12643 6.85147 4.35147C6.62643 4.57652 6.5 4.88174 6.5 5.2V42.8C6.5 43.1183 6.62643 43.4235 6.85147 43.6485C7.07652 43.8736 7.38174 44 7.7 44H24.5M24.5 4V44" stroke="#FFFBFB" stroke-opacity="0.65" stroke-width="3"/>
</svg>
