<svg width="48" height="48" viewBox="0 0 48 48" fill="none" xmlns="http://www.w3.org/2000/svg">
<path d="M24 44C14.06 44 6 38.836 6 30V29.824C6 25.588 8.676 22.2 12.75 20C16.648 17.896 18.952 14.02 18.376 10L17.25 4L21.422 5.59C28.936 8.45 35.194 13.414 39.25 19.722C41.0333 22.4622 41.9882 25.6587 42 28.928V30C42 33.124 40.992 35.79 39.25 37.93" stroke="#FFFBFB" stroke-opacity="0.65" stroke-width="3" stroke-linecap="round" stroke-linejoin="round"/>
<path d="M24 44C20.686 44 18 41.134 18 37.6C18 34.8 20.032 32.558 21.82 30.504L24 28L26.18 30.504C27.968 32.56 30 34.8 30 37.6C30 41.134 27.314 44 24 44Z" stroke="#FFFBFB" stroke-opacity="0.65" stroke-width="3" stroke-linecap="round" stroke-linejoin="round"/>
</svg>
